<svg width="44" height="44" viewBox="0 0 44 44" fill="none" xmlns="http://www.w3.org/2000/svg">
<path d="M18.3334 34.8334C17.905 34.8342 17.4899 34.685 17.1601 34.4117C16.9744 34.2578 16.821 34.0688 16.7085 33.8555C16.596 33.6422 16.5267 33.4088 16.5046 33.1686C16.4824 32.9285 16.5079 32.6864 16.5795 32.4561C16.651 32.2258 16.7673 32.012 16.9217 31.8267L25.1351 22L17.2151 12.155C17.0628 11.9675 16.949 11.7517 16.8804 11.5201C16.8118 11.2885 16.7896 11.0456 16.8152 10.8054C16.8407 10.5651 16.9135 10.3323 17.0293 10.1203C17.1451 9.90835 17.3017 9.72132 17.4901 9.57003C17.6797 9.40313 17.9019 9.27724 18.1425 9.20026C18.3832 9.12328 18.6371 9.09688 18.8885 9.1227C19.1398 9.14852 19.3831 9.22602 19.6031 9.35032C19.823 9.47462 20.0149 9.64305 20.1667 9.84503L29.0217 20.845C29.2914 21.1731 29.4388 21.5846 29.4388 22.0092C29.4388 22.4338 29.2914 22.8453 29.0217 23.1734L19.8551 34.1734C19.6711 34.3952 19.4375 34.5706 19.1731 34.6853C18.9087 34.8 18.621 34.8507 18.3334 34.8334Z" fill="white"/>
</svg>
