<svg width="25" height="25" viewBox="0 0 25 25" fill="none" xmlns="http://www.w3.org/2000/svg">
<path d="M10.1563 8.75C10.3063 7.5875 10.5563 6.55625 10.8738 5.72875C11.1401 5.03625 11.4426 4.5175 11.7463 4.18375C12.0501 3.85 12.3051 3.75 12.5001 3.75C12.6951 3.75 12.9501 3.85 13.2538 4.18375C13.5576 4.5175 13.8601 5.03625 14.1263 5.72875C14.4451 6.55625 14.6951 7.5875 14.8438 8.75H10.1563ZM9.70632 5.28C9.87507 4.84375 10.0651 4.44 10.2788 4.08375C9.163 4.43094 8.14347 5.03345 7.30115 5.84344C6.45882 6.65343 5.8169 7.64862 5.42632 8.75H8.89632C9.05382 7.4375 9.33382 6.25125 9.70757 5.28H9.70632ZM15.2938 5.28C15.1376 4.86558 14.9461 4.46535 14.7213 4.08375C15.8371 4.43094 16.8567 5.03345 17.699 5.84344C18.5413 6.65343 19.1832 7.64862 19.5738 8.75H16.1038C15.9463 7.4375 15.6663 6.25125 15.2926 5.28H15.2938ZM16.2126 10H19.8951C20.0341 10.8275 20.0341 11.6725 19.8951 12.5H16.2126C16.2607 11.6674 16.2607 10.8326 16.2126 10ZM16.1026 13.75H19.5726C19.182 14.8514 18.5401 15.8466 17.6977 16.6566C16.8554 17.4665 15.8359 18.0691 14.7201 18.4162C14.9326 18.06 15.1238 17.6562 15.2913 17.22C15.6663 16.2487 15.9451 15.0625 16.1038 13.75H16.1026ZM13.2526 18.3162C12.9488 18.65 12.6938 18.75 12.4988 18.75C12.3038 18.75 12.0488 18.65 11.7451 18.3162C11.4413 17.9825 11.1388 17.4637 10.8726 16.7712C10.5538 15.9437 10.3038 14.9137 10.1551 13.75H14.8426C14.6926 14.9125 14.4426 15.9437 14.1251 16.7712C13.8588 17.4637 13.5563 17.9825 13.2526 18.3162ZM5.42632 13.75C5.8169 14.8514 6.45882 15.8466 7.30115 16.6566C8.14347 17.4665 9.163 18.0691 10.2788 18.4162C10.0545 18.0346 9.86336 17.6344 9.70757 17.22C9.33257 16.2487 9.05382 15.0625 8.89507 13.75H5.42757H5.42632ZM8.78632 12.5H5.10382C4.96489 11.6725 4.96489 10.8275 5.10382 10H8.78632C8.73838 10.8326 8.73838 11.6674 8.78632 12.5ZM10.0376 10C9.98659 10.8326 9.98659 11.6674 10.0376 12.5H14.9626C15.0135 11.6674 15.0135 10.8326 14.9626 10H10.0376ZM4.37507 16.25H5.31882C5.62882 16.695 5.98007 17.11 6.36507 17.49C6.32713 17.4969 6.28863 17.5002 6.25007 17.5H4.86257L3.92507 21.25H21.0751L20.1376 17.5H18.7501C18.7115 17.5002 18.673 17.4969 18.6351 17.49C19.0213 17.1098 19.3715 16.6947 19.6813 16.25H20.6251C20.7645 16.25 20.8999 16.2967 21.0097 16.3825C21.1196 16.4684 21.1976 16.5885 21.2313 16.7237L22.4813 21.7237C22.5043 21.8159 22.506 21.912 22.4863 22.0049C22.4665 22.0977 22.4259 22.1849 22.3675 22.2597C22.309 22.3345 22.2343 22.395 22.149 22.4367C22.0637 22.4783 21.97 22.5 21.8751 22.5H3.12507C3.03014 22.5 2.93645 22.4783 2.85113 22.4367C2.76582 22.395 2.6911 22.3345 2.63267 22.2597C2.57423 22.1849 2.53361 22.0977 2.51389 22.0049C2.49416 21.912 2.49585 21.8159 2.51882 21.7237L3.76882 16.7237C3.80256 16.5885 3.88056 16.4684 3.99041 16.3825C4.10026 16.2967 4.23566 16.25 4.37507 16.25Z" fill="black"/>
</svg>
