<svg width="25" height="25" viewBox="0 0 25 25" fill="none" xmlns="http://www.w3.org/2000/svg">
<path d="M19.7916 7.29159H11.4583V14.5833H3.12496V5.20825H1.04163V20.8333H3.12496V17.7083H21.875V20.8333H23.9583V11.4583C23.9583 10.3532 23.5193 9.29338 22.7379 8.51197C21.9565 7.73057 20.8967 7.29159 19.7916 7.29159ZM7.29163 13.5416C8.12043 13.5416 8.91528 13.2123 9.50134 12.6263C10.0874 12.0402 10.4166 11.2454 10.4166 10.4166C10.4166 9.58778 10.0874 8.79293 9.50134 8.20688C8.91528 7.62083 8.12043 7.29159 7.29163 7.29159C6.46282 7.29159 5.66797 7.62083 5.08192 8.20688C4.49587 8.79293 4.16663 9.58778 4.16663 10.4166C4.16663 11.2454 4.49587 12.0402 5.08192 12.6263C5.66797 13.2123 6.46282 13.5416 7.29163 13.5416Z" fill="black"/>
</svg>
